<svg width="85" height="98" viewBox="0 0 85 98" fill="none" xmlns="http://www.w3.org/2000/svg">
<path d="M15.2801 1.01304L8.23971 18.8549M8.23971 18.8549C4.73919 23.2689 3.6124 26.0344 3.40527 31.6003L1 48.3387L1.36897 54.4546M8.23971 18.8549L25.6094 38.3744M8.23971 18.8549C15.6293 19.4217 20.2218 20.7353 27.6759 24.6782M1.36897 54.4546L2.53312 73.7508C3.39133 82.1113 4.94756 86.6615 9.0943 94.778L11.0723 96.7559C16.112 96.9665 19.1538 96.7325 24.071 96.1743C27.0624 91.7486 28.2362 86.7384 29.1288 75.7099C28.4992 61.6424 27.4999 53.2799 25.6094 38.3744M1.36897 54.4546C2.68903 60.526 4.02859 64.7278 6.48358 69.9866C7.86807 71.6315 8.81853 72.2108 10.8378 73.0082L13.1923 72.9883C18.3309 71.6599 20.0093 69.4725 22.3128 64.5273C23.8666 60.1975 24.531 57.5376 25.4995 52.5497L25.6094 38.3744M25.6094 38.3744L25.6094 38.3727L25.6159 30.4253M25.6159 30.4253L36.1585 1.01304M25.6159 30.4253L19.8401 31.891M46.8475 1.02585L41.3172 35.3223C41.8506 49.271 44.0836 56.1191 49.265 67.1773L60.2427 89.986C61.9503 92.5616 62.776 93.2316 64.175 93.6898C69.2215 94.0581 71.6302 93.4373 75.1981 91.572C75.7149 86.398 75.755 83.3129 75.4179 77.5066L71.1323 55.3096C70.7913 52.9933 70.8323 51.694 71.3521 49.3757C72.559 46.315 76.0258 43.7551 82.7802 38.9366C84.6559 35.3821 84.3402 32.3466 82 25.6465C80.6267 22.4452 75.0882 18.3879 69.484 19.0472M69.484 19.0472L68.0555 17.7156L69.9243 1.01292M69.484 19.0472C69.484 19.0472 67.4284 21.222 66.861 22.7291C64.0976 29.5486 62.4554 32.6868 59.3745 36.0795C55.006 41.443 53.3407 44.7515 50.8034 51.1339C49.5361 57.1395 48.9271 60.3399 49.0452 66.7069M4.40477 25.2978L25.5337 48.136M1.76412 42.7698C5.29719 38.871 8.04347 36.9557 12.8626 34.4399M8.40822 29.6251C5.81796 31.225 4.32718 32.3537 3.03189 34.1987M14.9505 26.3962L25.3896 23.508M29.9352 18.375C24.1164 15.0994 19.9703 13.6392 10.6405 12.7708M83 38.497C82.0362 37.7725 81.5715 37.7278 80.4726 38.497C75.5263 41.4624 73.0214 43.1735 69.2177 46.3887C66.6287 49.0477 66.132 51.2246 66.4029 56.2192L67.6159 76.5176C68.4395 80.9585 68.9232 82.4688 70.6731 84.2114C72.6707 86.2975 74.5388 85.9678 75.6376 83.3305M53.4129 45.1125C48.7834 43.0025 46.1528 41.8219 41.5117 39.0464M42.0913 30.5214C47.3228 34.5385 50.9613 36.1895 56.957 39.22M44.2102 17.3811C51.1188 14.6986 57.7045 16.2775 68.1524 16.8494M45.3591 10.2563C49.7079 7.76928 57.3745 8.51709 69.0156 9.13412M43.1265 24.1019C49.5296 19.8843 54.0373 18.4325 63.4403 16.5211" stroke="black"/>
</svg>
